<svg xmlns="http://www.w3.org/2000/svg" version="1.1" xmlns:xlink="http://www.w3.org/1999/xlink" xmlns:svgjs="http://svgjs.dev/svgjs" width="1500" height="1500" viewBox="0 0 1500 1500"><rect width="1500" height="1500" fill="#182d7e"></rect><g transform="matrix(0.6666666666666666,0,0,0.6666666666666666,250,281.3333333333334)"><svg viewBox="0 0 384 360" data-background-color="#182d7e" preserveAspectRatio="xMidYMid meet" height="1406" width="1500" xmlns="http://www.w3.org/2000/svg" xmlns:xlink="http://www.w3.org/1999/xlink"><g id="tight-bounds" transform="matrix(1,0,0,1,0,0)"><svg viewBox="0 0 384 360" height="360" width="384"><g><svg></svg></g><g><svg viewBox="0 0 384 360" height="360" width="384"><g><path d="M362.354 145.441v-42.24c0-21.12-19.163-38.402-42.587-38.402h-93.208c-15.198 0-28.337-8.831-34.559-21.646-6.222 12.81-19.36 21.646-34.559 21.646h-93.208c-23.424 0-42.587 17.282-42.587 38.402v42.24c0 15.198-8.831 28.337-21.646 34.559 12.81 6.222 21.646 19.36 21.646 34.559v42.24c0 21.12 19.163 38.402 42.587 38.402h93.208c15.198 0 28.337 8.831 34.559 21.646 6.222-12.81 19.36-21.646 34.559-21.646h93.208c23.424 0 42.587-17.282 42.587-38.402v-42.24c0-15.198 8.831-28.337 21.646-34.559-12.81-6.222-21.646-19.36-21.646-34.559z" fill="#cbbcbc" fill-rule="nonzero" stroke="none" stroke-width="1" stroke-linecap="butt" stroke-linejoin="miter" stroke-miterlimit="10" stroke-dasharray="" stroke-dashoffset="0" font-family="none" font-weight="none" font-size="none" text-anchor="none" style="mix-blend-mode: normal" data-fill-palette-color="tertiary"></path></g><g transform="matrix(1,0,0,1,136.81437125748502,99)"><svg viewBox="0 0 110.37125748502994 162" height="162" width="110.37125748502994"><g><svg viewBox="0 0 110.37125748502994 162" height="162" width="110.37125748502994"><g><svg viewBox="0 0 110.37125748502994 162" height="162" width="110.37125748502994"><g id="textblocktransform"><svg viewBox="0 0 110.37125748502994 162" height="162" width="110.37125748502994" id="textblock"><g><svg viewBox="0 0 110.37125748502994 162" height="162" width="110.37125748502994"><g transform="matrix(1,0,0,1,0,0)"><svg width="110.37125748502994" viewBox="2.2 -36.21 25 36.699999999999996" height="162" data-palette-color="#8a3411"><path d="M27.2-10.84L27.2-10.84Q27.2-7.52 25.51-4.94 23.83-2.37 20.65-0.94 17.48 0.49 13.21 0.49L13.21 0.49Q9.64 0.49 7.23-0.01 4.81-0.51 2.2-1.76L2.2-1.76 2.2-10.35Q4.96-8.94 7.93-8.14 10.91-7.35 13.4-7.35L13.4-7.35Q15.55-7.35 16.55-8.09 17.55-8.84 17.55-10.01L17.55-10.01Q17.55-10.74 17.15-11.29 16.75-11.84 15.86-12.4 14.97-12.96 11.11-14.7L11.11-14.7Q7.62-16.28 5.87-17.77 4.13-19.26 3.28-21.19 2.44-23.12 2.44-25.76L2.44-25.76Q2.44-30.69 6.03-33.45 9.62-36.21 15.89-36.21L15.89-36.21Q21.44-36.21 27.2-33.64L27.2-33.64 24.24-26.2Q19.24-28.49 15.6-28.49L15.6-28.49Q13.72-28.49 12.87-27.83 12.01-27.17 12.01-26.2L12.01-26.2Q12.01-25.15 13.1-24.32 14.18-23.49 18.99-21.29L18.99-21.29Q23.61-19.21 25.4-16.83 27.2-14.45 27.2-10.84Z" opacity="1" transform="matrix(1,0,0,1,0,0)" fill="#8a3411" class="wordmark-text-0" data-fill-palette-color="quaternary" id="text-0"></path></svg></g></svg></g></svg></g></svg></g></svg></g></svg></g></svg></g><defs></defs></svg><rect width="32" height="32" fill="none" stroke="none" visibility="hidden"></rect></g></svg></g></svg>